<svg xmlns:dc="http://purl.org/dc/elements/1.1/" xmlns:cc="http://creativecommons.org/ns#" xmlns:rdf="http://www.w3.org/1999/02/22-rdf-syntax-ns#" xmlns:svg="http://www.w3.org/2000/svg" xmlns="http://www.w3.org/2000/svg" xmlns:sodipodi="http://sodipodi.sourceforge.net/DTD/sodipodi-0.dtd" xmlns:inkscape="http://www.inkscape.org/namespaces/inkscape" version="1.1" viewBox="0 0 12.7 15.875" x="0px" y="0px"><g style="" display="inline"><path style="color:#000000;font-style:normal;font-variant:normal;font-weight:normal;font-stretch:normal;font-size:medium;line-height:normal;font-family:sans-serif;font-variant-ligatures:normal;font-variant-position:normal;font-variant-caps:normal;font-variant-numeric:normal;font-variant-alternates:normal;font-feature-settings:normal;text-indent:0;text-align:start;text-decoration:none;text-decoration-line:none;text-decoration-style:solid;text-decoration-color:#000000;letter-spacing:normal;word-spacing:normal;text-transform:none;writing-mode:lr-tb;direction:ltr;text-orientation:mixed;dominant-baseline:auto;baseline-shift:baseline;text-anchor:start;white-space:normal;shape-padding:0;clip-rule:nonzero;display:inline;overflow:visible;visibility:visible;opacity:1;isolation:auto;mix-blend-mode:normal;color-interpolation:sRGB;color-interpolation-filters:linearRGB;solid-color:#000000;solid-opacity:1;vector-effect:none;fill:#000000;fill-opacity:1;fill-rule:nonzero;stroke:none;stroke-width:1.05833328;stroke-linecap:round;stroke-linejoin:round;stroke-miterlimit:4;stroke-dasharray:none;stroke-dashoffset:0;stroke-opacity:1;paint-order:normal;color-rendering:auto;image-rendering:auto;shape-rendering:auto;text-rendering:auto;enable-background:accumulate" d="m 4.2328164,0.5296835 c -2.042955,0 -3.70313298,1.660178 -3.70313298,3.703133 v 4.234367 c 0,2.0429555 1.66017798,3.7031325 3.70313298,3.7031325 h 4.234367 c 2.0429546,0 3.7031326,-1.660178 3.7031326,-3.7031325 v -4.234367 c 0,-2.042955 -1.660178,-3.703133 -3.7031326,-3.703133 z m 0,1.05885 h 4.234367 c 1.474945,0 2.6468666,1.169338 2.6468666,2.644283 v 4.234367 c 0,1.474945 -1.1719216,2.6468675 -2.6468666,2.6468675 h -4.234367 c -1.474944,0 -2.644283,-1.1719225 -2.644283,-2.6468675 v -4.234367 c 0,-1.474945 1.169339,-2.644283 2.644283,-2.644283 z m 0.265617,1.321883 c -0.870322,0 -1.588016,0.717695 -1.588016,1.588017 v 0.793233 c -0.0035,0.297719 0.239211,0.53972 0.536918,0.535368 0.291638,-0.0043 0.524835,-0.243718 0.521415,-0.535368 h 5.17e-4 v -0.793233 c 0,-0.302311 0.226855,-0.529167 0.529166,-0.529167 l 0.793233,-5.16e-4 v 5.16e-4 c 0.297719,0.0035 0.540236,-0.239211 0.535885,-0.536918 -0.0043,-0.291638 -0.244235,-0.525351 -0.535885,-0.521932 z m 2.9099,0 v 5.17e-4 c -0.291411,-0.0031 -0.530553,0.229953 -0.534851,0.521415 -0.0043,0.297532 0.237374,0.540116 0.534851,0.536918 h 5.17e-4 0.792716 c 0.302312,0 0.529167,0.226856 0.529167,0.529167 v 0.793233 c -0.0035,0.297719 0.239211,0.53972 0.536918,0.535368 0.291638,-0.0043 0.524835,-0.243718 0.521415,-0.535368 h 5.17e-4 v -0.793233 c 0,-0.870322 -0.717695,-1.588017 -1.588017,-1.588017 z m -3.960998,3.962549 c -0.297707,-0.0044 -0.540409,0.237649 -0.536918,0.535368 v 0.793233 c 0,0.870322 0.717694,1.588017 1.588016,1.588017 h 0.793233 c 0.297719,0.0035 0.53972,-0.239211 0.535368,-0.536918 -0.0043,-0.291638 -0.243718,-0.524835 -0.535368,-0.521415 v -5.17e-4 h -0.793233 c -0.302311,0 -0.529166,-0.226855 -0.529166,-0.529167 v -0.793233 h -5.17e-4 c 0.0034,-0.29165 -0.229777,-0.531068 -0.521415,-0.535368 z m 5.820833,0 c -0.297707,-0.0044 -0.540408,0.237649 -0.536918,0.535368 h -5.17e-4 v 0.793233 c 0,0.302312 -0.226855,0.529167 -0.529167,0.529167 h -0.793233 v 5.17e-4 c -0.29165,-0.0034 -0.531068,0.229777 -0.535368,0.521415 -0.0044,0.297707 0.237649,0.540408 0.535368,0.536918 h 0.793233 c 0.870322,0 1.588017,-0.717695 1.588017,-1.588017 v -0.793233 c 0.0034,-0.29165 -0.229777,-0.531068 -0.521415,-0.535368 z"/></g><text x="0" y="27.7" fill="#000000" font-size="5px" font-weight="bold" font-family="'Helvetica Neue', Helvetica, Arial-Unicode, Arial, Sans-serif">Created by Ranah Pixel Studio</text><text x="0" y="32.7" fill="#000000" font-size="5px" font-weight="bold" font-family="'Helvetica Neue', Helvetica, Arial-Unicode, Arial, Sans-serif">from the Noun Project</text></svg>